<?xml version="1.0" encoding="utf-8"?>
<!-- Generator: Adobe Illustrator 16.0.0, SVG Export Plug-In . SVG Version: 6.00 Build 0)  -->
<!DOCTYPE svg PUBLIC "-//W3C//DTD SVG 1.1//EN" "http://www.w3.org/Graphics/SVG/1.1/DTD/svg11.dtd">
<svg version="1.1" id="Warstwa_1" xmlns="http://www.w3.org/2000/svg" x="0px" y="0px"
	 width="226.77px" height="226.77px" viewBox="0 0 226.77 226.77" enable-background="new 0 0 226.77 226.77" xml:space="preserve">
<line fill="none" stroke="#000000" stroke-width="3" stroke-miterlimit="10" x1="12.997" y1="28.528" x2="12.997" y2="225.203"/>
<path fill="none" stroke="#000000" stroke-width="3" stroke-miterlimit="10" d="M40.819,198.604V2.977
	c0,0,173.665-2.837,174.99,96.396C217.134,198.606,40.819,198.604,40.819,198.604"/>
<path fill="none" stroke="#000000" stroke-width="3" stroke-miterlimit="10" d="M67.929,170.216V28.528
	c0,0,120.428,0,120.303,70.845C188.107,170.216,67.929,170.216,67.929,170.216z"/>
<path fill="none" stroke="#000000" stroke-width="3" stroke-miterlimit="10" d="M215.433,107.781"/>
<path fill="none" stroke="#000000" stroke-width="3" stroke-miterlimit="10" d="M41.383,197.196"/>
<line fill="none" stroke="#000000" stroke-width="3" stroke-miterlimit="10" x1="12.472" y1="29.583" x2="40.439" y2="2.593"/>
<path fill="none" stroke="#000000" stroke-width="3" stroke-miterlimit="10" d="M67.929,56.917c0,0,114.247-12.852,94.458,88.639"/>
<line fill="none" stroke="#000000" stroke-width="3" stroke-miterlimit="10" x1="41.736" y1="197.195" x2="13.769" y2="224.186"/>
<path fill="none" stroke="#000000" stroke-width="3" stroke-miterlimit="10" d="M13.497,223.702c0,0,201.936,12.793,201.936-115.922
	"/>
</svg>
